# xmcd
#
# Track frame offsets: 
#        151
#        16302
#        35161
#        53416
#        68395
#        86464
#        108543
#        123554
#        138915
#        156110
#
# Disc length: 2298 seconds
#
# Revision: 0
# Processed by: cddbd v1.5.1PL2 Copyright (c) Steve Scherf et al.
# Submitted via: ExactAudioCopy v0.95b4
#
DISCID=7908f80a
DTITLE=แดง  จิตกร ชุดพิเศษ3 - รวมฮิตเพลงหมอลำ 2
DYEAR=2006
DGENRE=Country
TTITLE0=ข่าวร้ายสา'่วน
TTITLE1=แฟนเราเจ้าสาวเพื่อน
TTITLE2=โลกทั้งใบให้พรคนเดียว
TTITLE3=เหล้าขาวสาวเมิน
TTITLE4=สงกรานต์นี้ไม่มีน้อง
TTITLE5=ดื่มให้ลืมเธอ
TTITLE6=ยามจนต้องทำใจ
TTITLE7=อภัยพี่นะ
TTITLE8=หนุ่มก่อสร้างร้างแฟน
TTITLE9=รอวันลืม
EXTD=
EXTT0=
EXTT1=
EXTT2=
EXTT3=
EXTT4=
EXTT5=
EXTT6=
EXTT7=
EXTT8=
EXTT9=
PLAYORDER=
